<?xml version="1.0" encoding="utf-8"?>
<!-- Generator: Adobe Illustrator 19.0.0, SVG Export Plug-In . SVG Version: 6.00 Build 0)  -->
<svg version="1.1" id="Layer_1" xmlns="http://www.w3.org/2000/svg" xmlns:xlink="http://www.w3.org/1999/xlink" x="0px" y="0px"
	 viewBox="0 0 96 96" style="enable-background:new 0 0 96 96;" xml:space="preserve">
<style type="text/css">
	.st0{fill:#333333;}
</style>
<g id="XMLID_1_">
	<path id="XMLID_8_" class="st0" d="M67.5,46.1L54.8,33.4l-13,16.3l-10-10l-5.2,5.2H15.5V74c0,3.6,2.9,6.5,6.5,6.5h52
		c3.6,0,6.5-2.9,6.5-6.5V38.3h-5.2L67.5,46.1z M31.8,74h-6.5v-9.8h6.5V74z M44.8,74h-6.5V57.8h6.5V74z M57.8,74h-6.5v-9.8h6.5V74z
		 M70.8,74h-6.5V57.8h6.5V74z"/>
	<path id="XMLID_9_" class="st0" d="M74,15.5H22c-3.6,0-6.5,2.9-6.5,6.5v16.3h8.4l7.8-7.8l9.5,9.5l13-16.3l13.3,13.3l5.2-5.2h7.8V22
		C80.5,18.4,77.6,15.5,74,15.5z"/>
</g>
</svg>
