<?xml version="1.0" encoding="utf-8"?>
<!-- Generator: Adobe Illustrator 19.0.0, SVG Export Plug-In . SVG Version: 6.00 Build 0)  -->
<svg version="1.1" id="Layer_1" xmlns="http://www.w3.org/2000/svg" xmlns:xlink="http://www.w3.org/1999/xlink" x="0px" y="0px"
	 viewBox="0 0 96 96" style="enable-background:new 0 0 96 96;" xml:space="preserve">
<style type="text/css">
	.st0{fill:#333333;}
</style>
<g id="XMLID_2_">
	<path id="XMLID_6_" class="st0" d="M75.5,51.5c0,0.6-0.3,1.2-0.9,1.9L64.8,65c-0.8,1-2,1.8-3.5,2.5s-2.9,1-4.2,1H25.2
		c-0.7,0-1.3-0.1-1.8-0.4c-0.5-0.3-0.8-0.7-0.8-1.3c0-0.6,0.3-1.2,0.9-1.9l9.8-11.6c0.8-1,2-1.8,3.5-2.5c1.5-0.7,2.9-1,4.2-1H73
		c0.7,0,1.3,0.1,1.8,0.4C75.2,50.5,75.5,50.9,75.5,51.5z M65.5,41.4v4.7H41.1c-1.8,0-3.8,0.5-5.8,1.4c-2,0.9-3.6,2.1-4.8,3.5
		l-9.9,11.6l-0.1,0.2c0-0.1,0-0.2,0-0.4c0-0.2,0-0.3,0-0.4V33.9c0-1.8,0.6-3.3,1.9-4.6c1.3-1.3,2.8-1.9,4.6-1.9h9.4
		c1.8,0,3.3,0.6,4.6,1.9c1.3,1.3,1.9,2.8,1.9,4.6v0.9h15.9c1.8,0,3.3,0.6,4.6,1.9C64.8,38.1,65.5,39.6,65.5,41.4z"/>
</g>
</svg>
