<?xml version="1.0" encoding="utf-8"?>
<!-- Generator: Adobe Illustrator 19.0.0, SVG Export Plug-In . SVG Version: 6.00 Build 0)  -->
<svg version="1.1" id="Layer_1" xmlns="http://www.w3.org/2000/svg" xmlns:xlink="http://www.w3.org/1999/xlink" x="0px" y="0px"
	 viewBox="0 0 96 96" style="enable-background:new 0 0 96 96;" xml:space="preserve">
<style type="text/css">
	.st0{fill:#333333;}
</style>
<g id="XMLID_2_">
	<path id="XMLID_10_" class="st0" d="M46.2,48c0-2-0.7-3.8-2.1-5.2c-1.4-1.4-3.2-2.1-5.2-2.1c-2,0-3.8,0.7-5.2,2.1S31.5,46,31.5,48
		c0,2,0.7,3.8,2.1,5.2c1.4,1.4,3.2,2.1,5.2,2.1c2,0,3.8-0.7,5.2-2.1C45.5,51.7,46.2,50,46.2,48z M68.2,62.7c0-1-0.4-1.9-1.1-2.6
		S65.5,59,64.5,59c-1,0-1.9,0.4-2.6,1.1s-1.1,1.6-1.1,2.6c0,1,0.4,1.9,1.1,2.6c0.7,0.7,1.6,1.1,2.6,1.1s1.9-0.4,2.6-1.1
		C67.8,64.5,68.2,63.7,68.2,62.7z M68.2,33.3c0-1-0.4-1.9-1.1-2.6c-0.7-0.7-1.6-1.1-2.6-1.1c-1,0-1.9,0.4-2.6,1.1
		c-0.7,0.7-1.1,1.6-1.1,2.6c0,1,0.4,1.9,1.1,2.6c0.7,0.7,1.6,1.1,2.6,1.1s1.9-0.4,2.6-1.1C67.8,35.2,68.2,34.3,68.2,33.3z
		 M57.2,45.4v5.3c0,0.2-0.1,0.4-0.2,0.6c-0.1,0.2-0.3,0.3-0.5,0.3l-4.4,0.7c-0.2,0.7-0.5,1.4-0.9,2.2c0.6,0.9,1.5,2,2.6,3.3
		c0.1,0.2,0.2,0.4,0.2,0.6c0,0.2-0.1,0.4-0.2,0.5c-0.4,0.6-1.2,1.4-2.4,2.6c-1.1,1.1-1.9,1.7-2.2,1.7c-0.2,0-0.4-0.1-0.6-0.2
		l-3.3-2.6c-0.7,0.4-1.4,0.7-2.2,0.9c-0.2,2.1-0.4,3.5-0.7,4.4c-0.1,0.5-0.4,0.7-0.9,0.7h-5.3c-0.2,0-0.4-0.1-0.6-0.2
		c-0.2-0.1-0.3-0.3-0.3-0.5l-0.7-4.4c-0.6-0.2-1.4-0.5-2.1-0.9l-3.4,2.5c-0.1,0.1-0.3,0.2-0.6,0.2c-0.2,0-0.4-0.1-0.6-0.2
		c-2.8-2.5-4.1-4.1-4.1-4.6c0-0.2,0.1-0.4,0.2-0.5c0.2-0.3,0.6-0.8,1.2-1.5c0.6-0.7,1-1.3,1.3-1.7c-0.4-0.8-0.8-1.6-1-2.3l-4.4-0.7
		c-0.2,0-0.4-0.1-0.5-0.3c-0.1-0.2-0.2-0.3-0.2-0.6v-5.3c0-0.2,0.1-0.4,0.2-0.6c0.1-0.2,0.3-0.3,0.5-0.3l4.4-0.7
		c0.2-0.7,0.5-1.4,0.9-2.2c-0.6-0.9-1.5-2-2.6-3.3c-0.1-0.2-0.2-0.4-0.2-0.6c0-0.2,0.1-0.4,0.2-0.6c0.4-0.6,1.2-1.4,2.3-2.5
		c1.1-1.1,1.9-1.7,2.3-1.7c0.2,0,0.4,0.1,0.6,0.2l3.3,2.6c0.6-0.3,1.4-0.6,2.2-0.9c0.2-2.1,0.4-3.5,0.7-4.4c0.1-0.5,0.4-0.7,0.9-0.7
		h5.3c0.2,0,0.4,0.1,0.6,0.2s0.3,0.3,0.3,0.5l0.7,4.4c0.6,0.2,1.4,0.5,2.1,0.9l3.4-2.5c0.2-0.1,0.3-0.2,0.6-0.2
		c0.2,0,0.4,0.1,0.6,0.2c2.8,2.5,4.1,4.1,4.1,4.6c0,0.2-0.1,0.4-0.2,0.5c-0.2,0.3-0.6,0.8-1.2,1.5c-0.6,0.7-1,1.3-1.3,1.7
		c0.4,0.9,0.8,1.7,1,2.3l4.4,0.7c0.2,0,0.4,0.1,0.5,0.3C57.1,45,57.2,45.2,57.2,45.4z M75.5,60.6v4c0,0.3-1.4,0.6-4.3,0.9
		c-0.2,0.5-0.5,1-0.9,1.5c1,2.2,1.5,3.5,1.5,4c0,0.1,0,0.1-0.1,0.2c-2.3,1.4-3.5,2-3.6,2c-0.2,0-0.6-0.4-1.3-1.3
		c-0.7-0.9-1.2-1.5-1.5-1.9C65,70,64.7,70,64.5,70s-0.5,0-0.9-0.1c-0.3,0.4-0.8,1.1-1.5,1.9c-0.7,0.9-1.2,1.3-1.3,1.3
		c0,0-1.2-0.7-3.6-2c-0.1-0.1-0.1-0.1-0.1-0.2c0-0.5,0.5-1.8,1.5-4c-0.3-0.5-0.6-1-0.9-1.5c-2.8-0.3-4.3-0.6-4.3-0.9v-4
		c0-0.3,1.4-0.6,4.3-0.9c0.2-0.6,0.5-1.1,0.9-1.5c-1-2.2-1.5-3.5-1.5-4c0-0.1,0-0.1,0.1-0.2c0.1,0,0.4-0.2,1-0.6
		c0.6-0.3,1.2-0.7,1.7-1c0.5-0.3,0.8-0.5,0.9-0.5c0.2,0,0.6,0.4,1.3,1.3c0.7,0.9,1.2,1.5,1.5,1.9c0.4,0,0.7-0.1,0.9-0.1
		s0.5,0,0.9,0.1c1-1.4,1.9-2.4,2.6-3.2l0.2-0.1c0.1,0,1.3,0.7,3.6,2c0.1,0.1,0.1,0.1,0.1,0.2c0,0.5-0.5,1.8-1.5,4
		c0.3,0.4,0.6,0.9,0.9,1.5C74.1,60,75.5,60.3,75.5,60.6z M75.5,31.3v4c0,0.3-1.4,0.6-4.3,0.9c-0.2,0.5-0.5,1-0.9,1.5
		c1,2.2,1.5,3.5,1.5,4c0,0.1,0,0.1-0.1,0.2c-2.3,1.4-3.5,2-3.6,2c-0.2,0-0.6-0.4-1.3-1.3c-0.7-0.9-1.2-1.5-1.5-1.9
		c-0.4,0-0.7,0.1-0.9,0.1s-0.5,0-0.9-0.1c-0.3,0.4-0.8,1.1-1.5,1.9c-0.7,0.9-1.2,1.3-1.3,1.3c0,0-1.2-0.7-3.6-2
		c-0.1-0.1-0.1-0.1-0.1-0.2c0-0.5,0.5-1.8,1.5-4c-0.3-0.5-0.6-1-0.9-1.5c-2.8-0.3-4.3-0.6-4.3-0.9v-4c0-0.3,1.4-0.6,4.3-0.9
		c0.2-0.6,0.5-1.1,0.9-1.5c-1-2.2-1.5-3.5-1.5-4c0-0.1,0-0.1,0.1-0.2c0.1,0,0.4-0.2,1-0.6c0.6-0.3,1.2-0.7,1.7-1
		c0.5-0.3,0.8-0.5,0.9-0.5c0.2,0,0.6,0.4,1.3,1.3c0.7,0.9,1.2,1.5,1.5,1.9c0.4,0,0.7-0.1,0.9-0.1s0.5,0,0.9,0.1
		c1-1.4,1.9-2.4,2.6-3.2l0.2-0.1c0.1,0,1.3,0.7,3.6,2c0.1,0.1,0.1,0.1,0.1,0.2c0,0.5-0.5,1.8-1.5,4c0.3,0.4,0.6,0.9,0.9,1.5
		C74.1,30.7,75.5,31,75.5,31.3z"/>
</g>
</svg>
