<?xml version="1.0" encoding="utf-8"?>
<!-- Generator: Adobe Illustrator 19.0.0, SVG Export Plug-In . SVG Version: 6.00 Build 0)  -->
<svg version="1.1" id="Layer_1" xmlns="http://www.w3.org/2000/svg" xmlns:xlink="http://www.w3.org/1999/xlink" x="0px" y="0px"
	 viewBox="0 0 96 96" style="enable-background:new 0 0 96 96;" xml:space="preserve">
<style type="text/css">
	.st0{fill:#333333;}
</style>
<g id="XMLID_1_">
	<path id="XMLID_3_" class="st0" d="M20.7,42.1l9.6-9.6l8.1,8.1l13.2-16.5l13.6,20.4l3.7-2.5h7.7c0.5-2,0.9-4,0.9-5.9
		c0-10.4-7.3-17.7-17.7-17.7c-4.7,0-9.1,2.5-11.8,6.1c-2.7-3.7-7.1-6.1-11.8-6.1c-10.4,0-17.7,7.3-17.7,17.7c0,2,0.3,3.9,0.9,5.9
		L20.7,42.1L20.7,42.1z"/>
	<path id="XMLID_4_" class="st0" d="M39.9,67.2l-9.6-9.6l-1.7,1.7c7.7,9.8,17,17.1,17.6,17.6c0.5,0.4,1.2,0.6,1.8,0.6
		s1.3-0.2,1.8-0.6c0.4-0.3,4.7-3.7,9.8-8.8l-9.3-14L39.9,67.2z"/>
	<polygon id="XMLID_5_" class="st0" points="70.7,48 63.6,52.8 51.2,34.1 38.9,49.5 30.3,40.9 23.1,48 15.5,48 15.5,53.9 25.6,53.9 
		30.3,49.2 39.4,58.3 50.7,44.1 62,61 72.5,53.9 80.5,53.9 80.5,48 	"/>
</g>
</svg>
